<?xml version="1.0" encoding="UTF-8"?>
<!-- Generated by Pixelmator Pro 3.6.17 -->
<svg width="900" height="280" viewBox="0 0 900 280" xmlns="http://www.w3.org/2000/svg">
    <g id="temp-logo-2-">
        <path id="mt" fill="#000000" fill-rule="evenodd" stroke="none" d="M 506.361084 274 C 503.770508 274 501.627319 273.152039 499.931396 271.456116 C 498.235474 269.760193 497.387512 267.617004 497.387512 265.026428 L 497.387512 227.988586 C 497.387512 225.39801 498.235474 223.217834 499.931396 221.447998 C 501.627319 219.678223 503.770508 218.793274 506.361084 218.793274 L 543.398926 218.793274 C 545.989502 218.793274 548.169678 219.678223 549.939453 221.447998 C 551.70929 223.217834 552.594238 225.39801 552.594238 227.988586 L 552.594238 265.026428 C 552.594238 267.617004 551.70929 269.760193 549.939453 271.456116 C 548.169678 273.152039 545.989502 274 543.398926 274 Z M 433.102173 274 C 417.04541 274 403.221436 271.456177 391.630066 266.368408 C 380.038635 261.28064 371.154633 253.306763 364.977722 242.446655 C 358.800842 231.586487 355.712433 217.583679 355.712433 200.437744 L 355.712433 128.789185 L 326.352875 128.789185 C 323.707855 128.789185 321.482941 127.88678 319.678101 126.081909 C 317.873291 124.2771 316.970886 122.052246 316.970886 119.407227 L 316.970886 89.207458 C 316.970886 86.562439 317.873291 84.337524 319.678101 82.532715 C 321.482941 80.727905 323.707855 79.825439 326.352875 79.825439 L 355.712433 79.825439 L 355.712433 18.259033 C 355.712433 15.614014 356.614838 13.38916 358.419678 11.584351 C 360.224518 9.77948 362.449402 8.877075 365.094421 8.877075 L 408.316895 8.877075 C 410.961914 8.877075 413.186829 9.77948 414.991699 11.584351 C 416.796509 13.38916 417.698914 15.614014 417.698914 18.259033 L 417.698914 79.825439 L 464.468872 79.825439 C 467.113892 79.825439 469.338745 80.727905 471.143555 82.532715 C 472.948425 84.337524 473.85083 86.562439 473.85083 89.207458 L 473.85083 119.407227 C 473.85083 122.052246 472.948425 124.2771 471.143555 126.081909 C 469.338745 127.88678 467.113892 128.789185 464.468872 128.789185 L 417.698914 128.789185 L 417.698914 195.209961 C 417.698914 203.736206 419.332581 210.449829 422.599976 215.350891 C 425.86731 220.251953 431.312866 222.702454 438.936768 222.702454 L 467.736206 222.702454 C 470.381226 222.702454 472.606079 223.604858 474.41095 225.409668 C 476.21582 227.214539 477.118164 229.439453 477.118164 232.084473 L 477.118164 264.618042 C 477.118164 267.263062 476.21582 269.487915 474.41095 271.292725 C 472.606079 273.097595 470.381226 274 467.736206 274 Z M 14.226624 274 C 11.581604 274 9.356712 273.097595 7.55188 271.292725 C 5.74704 269.487915 4.844635 267.263062 4.844635 264.618042 L 4.844635 89.207458 C 4.844635 86.562439 5.74704 84.337524 7.55188 82.532715 C 9.356712 80.727905 11.581604 79.825439 14.226624 79.825439 L 55.115295 79.825439 C 57.760315 79.825439 59.985214 80.727905 61.790054 82.532715 C 63.594879 84.337524 64.497284 86.562439 64.497284 89.207458 L 64.497284 101.81012 C 69.476166 95.244263 76.415344 89.394165 85.315048 84.259766 C 94.214752 79.125244 104.76355 76.402527 116.961761 76.091309 C 145.776917 75.468994 165.536469 86.235596 176.241028 108.391479 C 181.966675 98.931702 190.17392 91.183472 200.862915 85.146606 C 211.55188 79.109741 223.182007 76.091309 235.753632 76.091309 C 248.636444 76.091309 260.289917 79.02417 270.714386 84.889893 C 281.138885 90.755615 289.439453 99.740723 295.616333 111.845581 C 301.793243 123.950439 304.881653 139.509155 304.881653 158.522156 L 304.881653 264.618042 C 304.881653 267.263062 303.979248 269.487915 302.174408 271.292725 C 300.369568 273.097595 298.144684 274 295.499664 274 L 252.043762 274 C 249.398743 274 247.173859 273.097595 245.369019 271.292725 C 243.564178 269.487915 242.661774 267.263062 242.661774 264.618042 L 242.661774 161.089355 C 242.661774 152.438599 241.385956 145.553894 238.83429 140.434998 C 236.282623 135.316101 232.898621 131.628662 228.682129 129.37262 C 224.465668 127.116577 219.665802 125.988586 214.28241 125.988586 C 209.614746 125.988586 205.13385 127.116577 200.839569 129.37262 C 196.545288 131.628662 193.091248 135.316101 190.477356 140.434998 C 187.863464 145.553894 186.556519 152.438599 186.556519 161.089355 L 186.556519 264.618042 C 186.556519 267.263062 185.654114 269.487915 183.849304 271.292725 C 182.044434 273.097595 179.81958 274 177.174561 274 L 133.718658 274 C 131.073639 274 128.84874 273.097595 127.0439 271.292725 C 125.239059 269.487915 124.336655 267.263062 124.336655 264.618042 L 124.336655 161.089355 C 124.336655 152.438599 123.014175 145.553894 120.369156 140.434998 C 117.724136 135.316101 114.293442 131.628662 110.076965 129.37262 C 105.860504 127.116577 101.153992 125.988586 95.957306 125.988586 C 91.289627 125.988586 86.808716 127.155518 82.51445 129.489319 C 78.220184 131.823181 74.727264 135.51062 72.035553 140.551697 C 69.343872 145.592773 67.998047 152.391907 67.998047 160.949341 L 67.998047 264.618042 C 67.998047 267.263062 67.095642 269.487915 65.290802 271.292725 C 63.485962 273.097595 61.261063 274 58.616058 274 Z"/>
        <path id="---7" fill="#0376bb" fill-rule="evenodd" stroke="none" d="M 528.515747 107.173584 C 528.515747 135.074707 551.149048 157.687439 579.068298 157.687439 L 845.733215 157.687439 C 873.652405 157.687439 896.285706 135.074707 896.285706 107.173584 L 896.285706 56.655029 C 896.285706 28.753906 873.652405 6.141174 845.733215 6.141174 L 579.068298 6.141174 C 551.149048 6.141174 528.515747 28.753906 528.515747 56.655029 Z"/>
        <path id="PRO" fill="#ffffff" fill-rule="evenodd" stroke="none" d="M 788.138245 123.203247 C 780.86377 123.203247 774.581726 122.009705 769.291931 119.622681 C 764.002136 117.235718 759.877686 113.596313 756.918579 108.704468 C 753.959351 103.812622 752.338806 97.699463 752.056763 90.364807 L 752.056763 69.656311 C 752.338806 62.401855 753.988159 56.318481 757.005005 51.405945 C 760.021851 46.493408 764.19519 42.792969 769.525024 40.304382 C 774.85498 37.815857 781.059326 36.571594 788.138245 36.571594 C 795.217224 36.571594 801.42157 37.815857 806.751465 40.304382 C 812.08136 42.792969 816.274719 46.493408 819.331665 51.405945 C 822.38855 56.318481 824.017944 62.401855 824.219727 69.656311 L 824.219727 90.364807 C 823.976563 97.699463 822.365723 103.812622 819.387085 108.704468 C 816.408508 113.596313 812.274353 117.235718 806.984558 119.622681 C 801.694763 122.009705 795.41272 123.203247 788.138245 123.203247 Z M 788.138245 107.65918 C 792.858398 107.65918 796.7146 106.241638 799.707031 103.406555 C 802.699402 100.571472 804.293945 96.003052 804.490723 89.701172 L 804.490723 70.073669 C 804.371643 65.872437 803.598633 62.443909 802.171692 59.788086 C 800.744751 57.132202 798.83252 55.189514 796.434814 53.959961 C 794.037109 52.730408 791.271667 52.115662 788.138245 52.115662 C 785.085083 52.115662 782.349365 52.730408 779.93103 53.959961 C 777.512634 55.189514 775.590027 57.132202 774.163086 59.788086 C 772.736145 62.443909 771.943726 65.872437 771.785767 70.073669 L 771.785767 89.701172 C 772.023926 96.003052 773.638855 100.571472 776.630615 103.406555 C 779.622375 106.241638 783.458252 107.65918 788.138245 107.65918 Z M 679.561768 122 C 678.718262 122 678.014771 121.718323 677.451416 121.154907 C 676.888062 120.591553 676.606323 119.888123 676.606323 119.044617 L 676.606323 40.788513 C 676.606323 39.906128 676.888062 39.183289 677.451416 38.619873 C 678.014771 38.056519 678.718262 37.774841 679.561768 37.774841 L 711.480835 37.774841 C 721.50647 37.774841 729.40625 40.088501 735.18042 44.715881 C 740.954651 49.343262 743.841736 55.97406 743.841736 64.608459 C 743.841736 70.490479 742.432617 75.387573 739.614502 79.299927 C 736.796326 83.21228 733.033447 86.117188 728.325867 88.014771 L 745.714233 119.469482 C 745.714233 120.152588 745.463257 120.745056 744.961304 121.24707 C 744.45929 121.749023 743.866821 122 743.183716 122 L 729.839294 122 C 728.391663 122 727.305969 121.628357 726.582153 120.885132 L 710.328369 91.193909 L 695.718689 91.193909 L 695.718689 119.044617 C 695.718689 119.888123 695.436707 120.591553 694.872681 121.154907 C 694.308655 121.718323 693.58551 122 692.703125 122 Z M 695.718689 75.95813 L 711.187561 75.95813 C 715.535461 75.95813 718.776611 74.945435 720.911011 72.920044 C 723.045532 70.894592 724.112732 68.082764 724.112732 64.484375 C 724.112732 60.885986 723.066162 58.033081 720.973083 55.925537 C 718.880005 53.817993 715.618164 52.764282 711.187561 52.764282 L 695.718689 52.764282 Z M 602.861084 122 C 602.017578 122 601.314148 121.718323 600.750732 121.154907 C 600.187378 120.591553 599.905701 119.888123 599.905701 119.044617 L 599.905701 40.788513 C 599.905701 39.906128 600.187378 39.183289 600.750732 38.619873 C 601.314148 38.056519 602.017578 37.774841 602.861084 37.774841 L 635.799133 37.774841 C 642.277771 37.774841 647.911194 38.779053 652.699646 40.787598 C 657.488098 42.796082 661.21051 45.819763 663.867004 49.858704 C 666.523499 53.897644 667.851685 58.952637 667.851685 65.023926 C 667.851685 71.095215 666.523499 76.109497 663.867004 80.066956 C 661.21051 84.024414 657.488098 86.966003 652.699646 88.891785 C 647.911194 90.817566 642.277771 91.780457 635.799133 91.780457 L 619.634705 91.780457 L 619.634705 119.044617 C 619.634705 119.888123 619.352661 120.591553 618.788696 121.154907 C 618.22467 121.718323 617.501465 122 616.619141 122 Z M 619.326355 76.853027 L 635.19751 76.853027 C 639.257141 76.853027 642.426208 75.85321 644.704834 73.853455 C 646.983398 71.85376 648.122681 68.869873 648.122681 64.901733 C 648.122681 61.343445 647.096558 58.43103 645.044189 56.164307 C 642.991821 53.897583 639.709595 52.764282 635.19751 52.764282 L 619.326355 52.764282 Z"/>
    </g>
</svg>
