<?xml version="1.0" encoding="UTF-8"?>
<!-- Generated by Pixelmator Pro 3.6.17 -->
<svg width="1080" height="270" viewBox="0 0 1080 270" xmlns="http://www.w3.org/2000/svg">
    <g id="temp-logo-2-">
        <text id="mt" xml:space="preserve"><tspan x="-22" y="271" font-family="Rubik" font-size="373.412578" font-weight="700" fill="#e0e0e0" letter-spacing="-11.202377" xml:space="preserve">mt</tspan><tspan font-family="Rubik" font-size="373.412578" font-weight="500" fill="#e0e0e0" letter-spacing="-11.202377" xml:space="preserve">.</tspan></text>
        <path id="-" fill="#0376bb" fill-rule="evenodd" stroke="none" d="M 575 152 C 547.385742 152 525 129.614243 525 102 L 525 52 C 525 24.385773 547.385742 2 575 2 L 1028 2 C 1055.614258 2 1078 24.385773 1078 52 L 1078 102 C 1078 129.614243 1055.614258 152 1028 152 L 575 152 Z M 535 102 L 535 52 C 535 29.908609 552.90863 12 575 12 L 1028 12 C 1050.091431 12 1068 29.908609 1068 52 L 1068 102 C 1068 124.0914 1050.091431 142 1028 142 L 575 142 C 552.908569 142 535 124.0914 535 102 Z"/>
        <path id="DIRECT" fill="#0376bb" fill-rule="evenodd" stroke="none" d="M 964.687744 119 C 963.845459 119 963.142334 118.718307 962.578369 118.154922 C 962.014343 117.591553 961.7323 116.888107 961.7323 116.044601 L 961.7323 51.552185 L 939.88269 51.552185 C 939.039185 51.552185 938.335693 51.270508 937.772339 50.707123 C 937.208984 50.143738 936.927246 49.440292 936.927246 48.596786 L 936.927246 37.788513 C 936.927246 36.906158 937.208984 36.183289 937.772339 35.619904 C 938.335693 35.056519 939.039185 34.774841 939.88269 34.774841 L 1002.882324 34.774841 C 1003.764709 34.774841 1004.487915 35.056519 1005.05188 35.619904 C 1005.615906 36.183289 1005.897888 36.906158 1005.897888 37.788513 L 1005.897888 48.596786 C 1005.897888 49.440292 1005.615906 50.143738 1005.05188 50.707123 C 1004.487915 51.270508 1003.764709 51.552185 1002.882324 51.552185 L 981.090942 51.552185 L 981.090942 116.044601 C 981.090942 116.888107 980.809265 117.591553 980.24585 118.154922 C 979.682495 118.718307 978.959595 119 978.077271 119 Z M 896.873901 120.203217 C 889.368835 120.203217 882.970825 118.933578 877.67981 116.394287 C 872.388794 113.85498 868.301941 110.159515 865.419189 105.30777 C 862.536499 100.456024 860.954163 94.552185 860.672119 87.596039 C 860.591919 84.307236 860.55188 80.777832 860.55188 77.007736 C 860.55188 73.23764 860.591919 69.628021 860.672119 66.178787 C 860.954163 59.305389 862.55719 53.432861 865.481262 48.561066 C 868.405334 43.68927 872.522888 39.973114 877.833984 37.412506 C 883.145081 34.851898 889.491699 33.571625 896.873901 33.571625 C 902.280884 33.571625 907.184937 34.260635 911.58606 35.638702 C 915.987244 37.016769 919.790527 38.978561 922.995972 41.524124 C 926.201416 44.069702 928.693054 47.072388 930.470947 50.532272 C 932.24884 53.992157 933.197266 57.823929 933.316406 62.027679 C 933.355225 62.749634 933.113953 63.351852 932.592529 63.834396 C 932.071167 64.31694 931.449463 64.558197 930.727539 64.558197 L 916.97522 64.558197 C 916.003784 64.558197 915.246826 64.336365 914.704102 63.89267 C 914.161377 63.44899 913.727783 62.663773 913.403137 61.537003 C 912.207397 56.741669 910.192688 53.472641 907.358887 51.729858 C 904.525024 49.987061 901.009399 49.115662 896.81189 49.115662 C 891.89624 49.115662 887.99176 50.482437 885.098389 53.216003 C 882.205017 55.949585 880.639282 60.471008 880.401123 66.780396 C 880.160522 73.358017 880.160522 80.095963 880.401123 86.994446 C 880.639282 93.303833 882.205017 97.825256 885.098389 100.558823 C 887.99176 103.292389 891.89624 104.659164 896.81189 104.659164 C 901.009399 104.659164 904.535339 103.76741 907.389893 101.983887 C 910.244385 100.200348 912.248779 96.951706 913.403137 92.237823 C 913.686401 91.069702 914.109741 90.274139 914.673096 89.851135 C 915.23645 89.428131 916.003784 89.216629 916.97522 89.216629 L 930.727539 89.216629 C 931.449463 89.216629 932.071167 89.457886 932.592529 89.94043 C 933.113953 90.422974 933.355225 91.025208 933.316406 91.747147 C 933.197266 95.950897 932.24884 99.782669 930.470947 103.242554 C 928.693054 106.702454 926.201416 109.705139 922.995972 112.250702 C 919.790527 114.79628 915.987244 116.758057 911.58606 118.136124 C 907.184937 119.514191 902.280884 120.203217 896.873901 120.203217 Z M 794.853088 119 C 794.009583 119 793.306152 118.718307 792.742737 118.154922 C 792.179382 117.591553 791.897705 116.888107 791.897705 116.044601 L 791.897705 37.788513 C 791.897705 36.906158 792.179382 36.183289 792.742737 35.619904 C 793.306152 35.056519 794.009583 34.774841 794.853088 34.774841 L 849.362549 34.774841 C 850.244934 34.774841 850.967773 35.056519 851.531128 35.619904 C 852.094543 36.183289 852.376221 36.906158 852.376221 37.788513 L 852.376221 47.363495 C 852.376221 48.207001 852.094543 48.910431 851.531128 49.473816 C 850.967773 50.037201 850.244934 50.318878 849.362549 50.318878 L 810.393372 50.318878 L 810.393372 69.160507 L 846.715454 69.160507 C 847.597839 69.160507 848.320679 69.442505 848.884094 70.006531 C 849.44751 70.570526 849.729126 71.293701 849.729126 72.176071 L 849.729126 81.072357 C 849.729126 81.914612 849.44751 82.617737 848.884094 83.181732 C 848.320679 83.745758 847.597839 84.027756 846.715454 84.027756 L 810.393372 84.027756 L 810.393372 103.455948 L 850.325134 103.455948 C 851.20752 103.455948 851.930359 103.73764 852.493774 104.301025 C 853.057129 104.864395 853.338806 105.587265 853.338806 106.469635 L 853.338806 116.044601 C 853.338806 116.888107 853.057129 117.591553 852.493774 118.154922 C 851.930359 118.718307 851.20752 119 850.325134 119 Z M 716.400269 119 C 715.556702 119 714.853271 118.718307 714.289917 118.154922 C 713.726501 117.591553 713.444824 116.888107 713.444824 116.044601 L 713.444824 37.788513 C 713.444824 36.906158 713.726501 36.183289 714.289917 35.619904 C 714.853271 35.056519 715.556702 34.774841 716.400269 34.774841 L 748.319336 34.774841 C 758.34491 34.774841 766.24469 37.088501 772.018921 41.715881 C 777.793152 46.343292 780.680176 52.97406 780.680176 61.608444 C 780.680176 67.490448 779.271118 72.387558 776.452942 76.299911 C 773.634766 80.212265 769.871948 83.117188 765.164368 85.014771 L 782.191772 115.14595 C 782.432373 115.627228 782.552734 116.068405 782.552734 116.469482 C 782.552734 117.152557 782.301758 117.745087 781.799744 118.247055 C 781.297791 118.749023 780.705261 119 780.022217 119 L 766.677734 119 C 765.230103 119 764.144409 118.628387 763.420654 117.885147 C 762.696777 117.141907 762.155701 116.430634 761.797241 115.751312 L 747.16687 88.193893 L 732.55719 88.193893 L 732.55719 116.044601 C 732.55719 116.888107 732.275146 117.591553 731.711182 118.154922 C 731.147156 118.718307 730.42395 119 729.541626 119 Z M 732.55719 72.95816 L 748.026001 72.95816 C 752.373901 72.95816 755.615051 71.945465 757.749512 69.920044 C 759.883972 67.894623 760.951172 65.082748 760.951172 61.48436 C 760.951172 57.885971 759.904663 55.033066 757.811584 52.925537 C 755.718445 50.818024 752.456665 49.764282 748.026001 49.764282 L 732.55719 49.764282 Z M 682.594177 119 C 681.750671 119 681.047241 118.718307 680.483887 118.154922 C 679.920471 117.591553 679.638794 116.888107 679.638794 116.044601 L 679.638794 37.730225 C 679.638794 36.886719 679.920471 36.183289 680.483887 35.619904 C 681.047241 35.056519 681.750671 34.774841 682.594177 34.774841 L 696.288269 34.774841 C 697.131775 34.774841 697.835205 35.056519 698.398621 35.619904 C 698.962036 36.183289 699.243713 36.886719 699.243713 37.730225 L 699.243713 116.044601 C 699.243713 116.888107 698.962036 117.591553 698.398621 118.154922 C 697.835205 118.718307 697.131775 119 696.288269 119 Z M 600.861084 119 C 600.017578 119 599.314148 118.718307 598.750732 118.154922 C 598.187378 117.591553 597.905701 116.888107 597.905701 116.044601 L 597.905701 37.788513 C 597.905701 36.906158 598.187378 36.183289 598.750732 35.619904 C 599.314148 35.056519 600.017578 34.774841 600.861084 34.774841 L 631.114441 34.774841 C 639.123413 34.774841 645.822205 36.028473 651.210999 38.535828 C 656.599792 41.043167 660.707336 44.733612 663.53363 49.6073 C 666.359985 54.480988 667.854553 60.468475 668.017517 67.570007 C 668.137817 71.096954 668.197998 74.203033 668.197998 76.888367 C 668.197998 79.573669 668.137817 82.639023 668.017517 86.084503 C 667.774353 93.546997 666.30072 99.715302 663.596619 104.5896 C 660.892517 109.463898 656.896545 113.084167 651.608643 115.450516 C 646.32074 117.816849 639.689941 119 631.716064 119 Z M 617.018005 103.455948 L 631.114441 103.455948 C 635.146484 103.455948 638.431519 102.860931 640.969543 101.670868 C 643.507629 100.480804 645.403564 98.587006 646.657593 95.989426 C 647.91156 93.391846 648.578674 89.992477 648.658875 85.791214 C 648.780457 83.426132 648.851257 81.330872 648.871338 79.505356 C 648.891357 77.67984 648.891357 75.854034 648.871338 74.027893 C 648.851257 72.201752 648.780457 70.146912 648.658875 67.863281 C 648.498413 61.834641 646.956543 57.403473 644.033081 54.569626 C 641.109619 51.735779 636.602905 50.318878 630.512878 50.318878 L 617.018005 50.318878 Z"/>
    </g>
</svg>
