<?xml version="1.0" encoding="UTF-8"?>
<!-- Generated by Pixelmator Pro 3.6.17 -->
<svg width="1080" height="270" viewBox="0 0 1080 270" xmlns="http://www.w3.org/2000/svg">
    <g id="temp-logo-2-">
        <path id="mt" fill="#000000" fill-rule="evenodd" stroke="none" d="M 503.361084 269 C 500.770508 269 498.627319 268.152039 496.931396 266.456116 C 495.235474 264.760193 494.387512 262.617004 494.387512 260.026428 L 494.387512 222.988571 C 494.387512 220.39801 495.235474 218.21785 496.931396 216.448013 C 498.627319 214.678192 500.770508 213.793289 503.361084 213.793289 L 540.398926 213.793289 C 542.989502 213.793289 545.169678 214.678192 546.939453 216.448013 C 548.70929 218.21785 549.594238 220.39801 549.594238 222.988571 L 549.594238 260.026428 C 549.594238 262.617004 548.70929 264.760193 546.939453 266.456116 C 545.169678 268.152039 542.989502 269 540.398926 269 Z M 430.102173 269 C 414.04538 269 400.221466 266.456146 388.630066 261.368378 C 377.038635 256.280609 368.154633 248.306763 361.977722 237.44664 C 355.800842 226.586502 352.712433 212.583664 352.712433 195.437729 L 352.712433 123.789185 L 323.352875 123.789185 C 320.707855 123.789185 318.482941 122.88678 316.678101 121.08194 C 314.873291 119.2771 313.970886 117.052216 313.970886 114.407196 L 313.970886 84.207458 C 313.970886 81.562439 314.873291 79.337524 316.678101 77.532715 C 318.482941 75.727875 320.707855 74.82547 323.352875 74.82547 L 352.712433 74.82547 L 352.712433 13.259064 C 352.712433 10.614044 353.614838 8.38916 355.419678 6.58432 C 357.224518 4.77948 359.449402 3.877075 362.094421 3.877075 L 405.316925 3.877075 C 407.961945 3.877075 410.186829 4.77948 411.991669 6.58432 C 413.796509 8.38916 414.698914 10.614044 414.698914 13.259064 L 414.698914 74.82547 L 461.468842 74.82547 C 464.113861 74.82547 466.338745 75.727875 468.143585 77.532715 C 469.948425 79.337524 470.85083 81.562439 470.85083 84.207458 L 470.85083 114.407196 C 470.85083 117.052216 469.948425 119.2771 468.143585 121.08194 C 466.338745 122.88678 464.113861 123.789185 461.468842 123.789185 L 414.698914 123.789185 L 414.698914 190.209946 C 414.698914 198.736237 416.332581 205.449829 419.599945 210.350891 C 422.86734 215.251953 428.312866 217.702454 435.936768 217.702454 L 464.736206 217.702454 C 467.381226 217.702454 469.60611 218.604858 471.41095 220.409683 C 473.21579 222.214523 474.118195 224.439423 474.118195 227.084442 L 474.118195 259.618011 C 474.118195 262.263031 473.21579 264.487915 471.41095 266.292755 C 469.60611 268.097595 467.381226 269 464.736206 269 Z M 11.226627 269 C 8.581608 269 6.356714 268.097595 4.551876 266.292755 C 2.74704 264.487915 1.844635 262.263031 1.844635 259.618011 L 1.844635 84.207458 C 1.844635 81.562439 2.74704 79.337524 4.551876 77.532715 C 6.356714 75.727875 8.581608 74.82547 11.226627 74.82547 L 52.115303 74.82547 C 54.760323 74.82547 56.985214 75.727875 58.790054 77.532715 C 60.594887 79.337524 61.497292 81.562439 61.497292 84.207458 L 61.497292 96.81012 C 66.476158 90.244263 73.415337 84.394196 82.315048 79.259735 C 91.21476 74.125275 101.763557 71.402527 113.961761 71.091339 C 142.776917 70.468964 162.536469 81.235596 173.241013 103.39151 C 178.96669 93.931702 187.17392 86.183441 197.8629 80.146576 C 208.551895 74.109711 220.182022 71.091339 232.753632 71.091339 C 245.636444 71.091339 257.289917 74.024139 267.714386 79.889862 C 278.138885 85.755585 286.439453 94.740723 292.616333 106.845581 C 298.793243 118.950439 301.881653 134.50914 301.881653 153.522156 L 301.881653 259.618011 C 301.881653 262.263031 300.979248 264.487915 299.174408 266.292755 C 297.369568 268.097595 295.144684 269 292.499664 269 L 249.043762 269 C 246.398743 269 244.173859 268.097595 242.369019 266.292755 C 240.564178 264.487915 239.661774 262.263031 239.661774 259.618011 L 239.661774 156.089371 C 239.661774 147.438599 238.385956 140.553879 235.83429 135.434982 C 233.282623 130.316101 229.898605 126.628693 225.682144 124.372635 C 221.465668 122.116592 216.665802 120.988586 211.28241 120.988586 C 206.614731 120.988586 202.133835 122.116592 197.839569 124.372635 C 193.545303 126.628693 190.091263 130.316101 187.477356 135.434982 C 184.863464 140.553879 183.556534 147.438599 183.556534 156.089371 L 183.556534 259.618011 C 183.556534 262.263031 182.654129 264.487915 180.849289 266.292755 C 179.044449 268.097595 176.819565 269 174.174545 269 L 130.718658 269 C 128.073639 269 125.84874 268.097595 124.0439 266.292755 C 122.239059 264.487915 121.336655 262.263031 121.336655 259.618011 L 121.336655 156.089371 C 121.336655 147.438599 120.014175 140.553879 117.369156 135.434982 C 114.724136 130.316101 111.293442 126.628693 107.076965 124.372635 C 102.860497 122.116592 98.153992 120.988586 92.957306 120.988586 C 88.289627 120.988586 83.808716 122.155487 79.51445 124.489334 C 75.220184 126.823166 71.727257 130.51059 69.035561 135.551682 C 66.343864 140.592773 64.998039 147.391922 64.998039 155.949341 L 64.998039 259.618011 C 64.998039 262.263031 64.095634 264.487915 62.290794 266.292755 C 60.485962 268.097595 58.261063 269 55.616051 269 Z"/>
        <path id="-" fill="#0376bb" fill-rule="evenodd" stroke="none" d="M 525 102 C 525 129.614243 547.385742 152 575 152 L 1028 152 C 1055.614258 152 1078 129.614243 1078 102 L 1078 52 C 1078 24.385773 1055.614258 2 1028 2 L 575 2 C 547.385742 2 525 24.385773 525 52 Z"/>
        <path id="DIRECT" fill="#ffffff" fill-rule="evenodd" stroke="none" d="M 964.687744 119 C 963.845459 119 963.142334 118.718307 962.578369 118.154922 C 962.014343 117.591553 961.7323 116.888107 961.7323 116.044601 L 961.7323 51.552185 L 939.88269 51.552185 C 939.039185 51.552185 938.335693 51.270508 937.772339 50.707123 C 937.208984 50.143738 936.927246 49.440292 936.927246 48.596786 L 936.927246 37.788513 C 936.927246 36.906158 937.208984 36.183289 937.772339 35.619904 C 938.335693 35.056519 939.039185 34.774841 939.88269 34.774841 L 1002.882324 34.774841 C 1003.764709 34.774841 1004.487915 35.056519 1005.05188 35.619904 C 1005.615906 36.183289 1005.897888 36.906158 1005.897888 37.788513 L 1005.897888 48.596786 C 1005.897888 49.440292 1005.615906 50.143738 1005.05188 50.707123 C 1004.487915 51.270508 1003.764709 51.552185 1002.882324 51.552185 L 981.090942 51.552185 L 981.090942 116.044601 C 981.090942 116.888107 980.809265 117.591553 980.24585 118.154922 C 979.682495 118.718307 978.959595 119 978.077271 119 Z M 896.873901 120.203217 C 889.368835 120.203217 882.970825 118.933578 877.67981 116.394287 C 872.388794 113.85498 868.301941 110.159515 865.419189 105.30777 C 862.536499 100.456024 860.954163 94.552185 860.672119 87.596039 C 860.591919 84.307236 860.55188 80.777832 860.55188 77.007736 C 860.55188 73.23764 860.591919 69.628021 860.672119 66.178787 C 860.954163 59.305389 862.55719 53.432861 865.481262 48.561066 C 868.405334 43.68927 872.522888 39.973114 877.833984 37.412506 C 883.145081 34.851898 889.491699 33.571625 896.873901 33.571625 C 902.280884 33.571625 907.184937 34.260635 911.58606 35.638702 C 915.987244 37.016769 919.790527 38.978561 922.995972 41.524124 C 926.201416 44.069702 928.693054 47.072388 930.470947 50.532272 C 932.24884 53.992157 933.197266 57.823929 933.316406 62.027679 C 933.355225 62.749634 933.113953 63.351852 932.592529 63.834396 C 932.071167 64.31694 931.449463 64.558197 930.727539 64.558197 L 916.97522 64.558197 C 916.003784 64.558197 915.246826 64.336365 914.704102 63.89267 C 914.161377 63.44899 913.727783 62.663773 913.403137 61.537003 C 912.207397 56.741669 910.192688 53.472641 907.358887 51.729858 C 904.525024 49.987061 901.009399 49.115662 896.81189 49.115662 C 891.89624 49.115662 887.99176 50.482437 885.098389 53.216003 C 882.205017 55.949585 880.639282 60.471008 880.401123 66.780396 C 880.160522 73.358017 880.160522 80.095963 880.401123 86.994446 C 880.639282 93.303833 882.205017 97.825256 885.098389 100.558823 C 887.99176 103.292389 891.89624 104.659164 896.81189 104.659164 C 901.009399 104.659164 904.535339 103.76741 907.389893 101.983887 C 910.244385 100.200348 912.248779 96.951706 913.403137 92.237823 C 913.686401 91.069702 914.109741 90.274139 914.673096 89.851135 C 915.23645 89.428131 916.003784 89.216629 916.97522 89.216629 L 930.727539 89.216629 C 931.449463 89.216629 932.071167 89.457886 932.592529 89.94043 C 933.113953 90.422974 933.355225 91.025208 933.316406 91.747147 C 933.197266 95.950897 932.24884 99.782669 930.470947 103.242554 C 928.693054 106.702454 926.201416 109.705139 922.995972 112.250702 C 919.790527 114.79628 915.987244 116.758057 911.58606 118.136124 C 907.184937 119.514191 902.280884 120.203217 896.873901 120.203217 Z M 794.853088 119 C 794.009583 119 793.306152 118.718307 792.742737 118.154922 C 792.179382 117.591553 791.897705 116.888107 791.897705 116.044601 L 791.897705 37.788513 C 791.897705 36.906158 792.179382 36.183289 792.742737 35.619904 C 793.306152 35.056519 794.009583 34.774841 794.853088 34.774841 L 849.362549 34.774841 C 850.244934 34.774841 850.967773 35.056519 851.531128 35.619904 C 852.094543 36.183289 852.376221 36.906158 852.376221 37.788513 L 852.376221 47.363495 C 852.376221 48.207001 852.094543 48.910431 851.531128 49.473816 C 850.967773 50.037201 850.244934 50.318878 849.362549 50.318878 L 810.393372 50.318878 L 810.393372 69.160507 L 846.715454 69.160507 C 847.597839 69.160507 848.320679 69.442505 848.884094 70.006531 C 849.44751 70.570526 849.729126 71.293701 849.729126 72.176071 L 849.729126 81.072357 C 849.729126 81.914612 849.44751 82.617737 848.884094 83.181732 C 848.320679 83.745758 847.597839 84.027756 846.715454 84.027756 L 810.393372 84.027756 L 810.393372 103.455948 L 850.325134 103.455948 C 851.20752 103.455948 851.930359 103.73764 852.493774 104.301025 C 853.057129 104.864395 853.338806 105.587265 853.338806 106.469635 L 853.338806 116.044601 C 853.338806 116.888107 853.057129 117.591553 852.493774 118.154922 C 851.930359 118.718307 851.20752 119 850.325134 119 Z M 716.400269 119 C 715.556702 119 714.853271 118.718307 714.289917 118.154922 C 713.726501 117.591553 713.444824 116.888107 713.444824 116.044601 L 713.444824 37.788513 C 713.444824 36.906158 713.726501 36.183289 714.289917 35.619904 C 714.853271 35.056519 715.556702 34.774841 716.400269 34.774841 L 748.319336 34.774841 C 758.34491 34.774841 766.24469 37.088501 772.018921 41.715881 C 777.793152 46.343292 780.680176 52.97406 780.680176 61.608444 C 780.680176 67.490448 779.271118 72.387558 776.452942 76.299911 C 773.634766 80.212265 769.871948 83.117188 765.164368 85.014771 L 782.191772 115.14595 C 782.432373 115.627228 782.552734 116.068405 782.552734 116.469482 C 782.552734 117.152557 782.301758 117.745087 781.799744 118.247055 C 781.297791 118.749023 780.705261 119 780.022217 119 L 766.677734 119 C 765.230103 119 764.144409 118.628387 763.420654 117.885147 C 762.696777 117.141907 762.155701 116.430634 761.797241 115.751312 L 747.16687 88.193893 L 732.55719 88.193893 L 732.55719 116.044601 C 732.55719 116.888107 732.275146 117.591553 731.711182 118.154922 C 731.147156 118.718307 730.42395 119 729.541626 119 Z M 732.55719 72.95816 L 748.026001 72.95816 C 752.373901 72.95816 755.615051 71.945465 757.749512 69.920044 C 759.883972 67.894623 760.951172 65.082748 760.951172 61.48436 C 760.951172 57.885971 759.904663 55.033066 757.811584 52.925537 C 755.718445 50.818024 752.456665 49.764282 748.026001 49.764282 L 732.55719 49.764282 Z M 682.594177 119 C 681.750671 119 681.047241 118.718307 680.483887 118.154922 C 679.920471 117.591553 679.638794 116.888107 679.638794 116.044601 L 679.638794 37.730225 C 679.638794 36.886719 679.920471 36.183289 680.483887 35.619904 C 681.047241 35.056519 681.750671 34.774841 682.594177 34.774841 L 696.288269 34.774841 C 697.131775 34.774841 697.835205 35.056519 698.398621 35.619904 C 698.962036 36.183289 699.243713 36.886719 699.243713 37.730225 L 699.243713 116.044601 C 699.243713 116.888107 698.962036 117.591553 698.398621 118.154922 C 697.835205 118.718307 697.131775 119 696.288269 119 Z M 600.861084 119 C 600.017578 119 599.314148 118.718307 598.750732 118.154922 C 598.187378 117.591553 597.905701 116.888107 597.905701 116.044601 L 597.905701 37.788513 C 597.905701 36.906158 598.187378 36.183289 598.750732 35.619904 C 599.314148 35.056519 600.017578 34.774841 600.861084 34.774841 L 631.114441 34.774841 C 639.123413 34.774841 645.822205 36.028473 651.210999 38.535828 C 656.599792 41.043167 660.707336 44.733612 663.53363 49.6073 C 666.359985 54.480988 667.854553 60.468475 668.017517 67.570007 C 668.137817 71.096954 668.197998 74.203033 668.197998 76.888367 C 668.197998 79.573669 668.137817 82.639023 668.017517 86.084503 C 667.774353 93.546997 666.30072 99.715302 663.596619 104.5896 C 660.892517 109.463898 656.896545 113.084167 651.608643 115.450516 C 646.32074 117.816849 639.689941 119 631.716064 119 Z M 617.018005 103.455948 L 631.114441 103.455948 C 635.146484 103.455948 638.431519 102.860931 640.969543 101.670868 C 643.507629 100.480804 645.403564 98.587006 646.657593 95.989426 C 647.91156 93.391846 648.578674 89.992477 648.658875 85.791214 C 648.780457 83.426132 648.851257 81.330872 648.871338 79.505356 C 648.891357 77.67984 648.891357 75.854034 648.871338 74.027893 C 648.851257 72.201752 648.780457 70.146912 648.658875 67.863281 C 648.498413 61.834641 646.956543 57.403473 644.033081 54.569626 C 641.109619 51.735779 636.602905 50.318878 630.512878 50.318878 L 617.018005 50.318878 Z"/>
    </g>
</svg>
